<svg width="115" height="18" viewBox="0 0 115 18" fill="none" xmlns="http://www.w3.org/2000/svg">
<path d="M50.1655 13.3448C51.8116 13.3448 52.9005 12.4828 52.9005 10.8818C52.9005 9.26847 51.8116 8.4064 50.1655 8.4064H47V15.968H48.6081V13.3448H50.1655ZM51.3051 10.8818C51.3051 11.5345 50.8999 12.0025 50.0642 12.0025H48.6081V9.74877H50.0642C50.8999 9.74877 51.3051 10.2044 51.3051 10.8818ZM58.3352 15.968V12.4581C58.3352 11.1404 57.4615 10.3399 55.9547 10.3399C54.6632 10.3399 53.7388 11.1034 53.5742 12.101H55.0684C55.195 11.7808 55.4609 11.5837 55.9041 11.5837C56.5372 11.5837 56.8284 11.9655 56.8284 12.4335V12.8399C56.6005 12.6798 56.0307 12.5197 55.5369 12.5197C54.3086 12.5197 53.3463 13.234 53.3463 14.2808C53.3463 15.4261 54.3086 16.0665 55.4482 16.0665C56.0687 16.0665 56.6385 15.8571 56.8284 15.6724V15.968H58.3352ZM56.8284 14.4655C56.6891 14.7611 56.2586 14.9458 55.8028 14.9458C55.309 14.9458 54.8025 14.7488 54.8025 14.2685C54.8025 13.8005 55.309 13.5911 55.8028 13.5911C56.2586 13.5911 56.6891 13.7759 56.8284 14.0714V14.4655ZM61.8182 18L64.7685 10.4631H63.1858L61.8942 14.1207L60.59 10.4631H58.9313L61.0965 15.9926L60.2735 18H61.8182ZM73.4958 13.2217C73.4958 11.5222 72.3689 10.3399 70.7228 10.3399C69.0768 10.3399 67.9498 11.5222 67.9498 13.2217C67.9498 14.9089 69.0768 16.0911 70.7228 16.0911C72.3689 16.0911 73.4958 14.9089 73.4958 13.2217ZM71.9384 13.2217C71.9384 14.133 71.5079 14.798 70.7228 14.798C69.9378 14.798 69.5073 14.133 69.5073 13.2217C69.5073 12.298 69.9378 11.633 70.7228 11.633C71.5079 11.633 71.9384 12.298 71.9384 13.2217ZM77.4658 15.968L79.6183 10.4631H78.0356L76.7567 14.1207L75.4525 10.4631H73.8064L75.9463 15.968H77.4658ZM83.7425 14.17C83.6158 14.6379 83.2233 14.8596 82.6915 14.8596C81.9951 14.8596 81.5139 14.367 81.4633 13.5419H85.2366V13.0739C85.2366 11.4606 84.3249 10.3399 82.6662 10.3399C81.0834 10.3399 79.9438 11.5591 79.9438 13.2217C79.9438 14.9212 81.0454 16.0911 82.6915 16.0911C84.1097 16.0911 84.996 15.3399 85.1986 14.17H83.7425ZM82.6788 11.5837C83.3246 11.5837 83.6792 12.0394 83.6918 12.6182H81.5013C81.6406 11.9409 82.0711 11.5837 82.6788 11.5837ZM89.6654 10.4384C89.5767 10.3892 89.3361 10.3399 89.0702 10.3399C88.5131 10.3399 88.0446 10.6108 87.804 11.0049V10.4631H86.2339V15.968H87.804V12.5567C87.918 12.0517 88.3485 11.7808 88.8803 11.7808C89.1715 11.7808 89.4501 11.8424 89.6654 11.9655V10.4384ZM93.6979 14.3054C93.6979 15.5246 94.4196 16.0788 95.5719 16.0788C95.9897 16.0788 96.3696 16.0172 96.5848 15.9064V14.5517C96.4076 14.6626 96.1416 14.7365 95.9011 14.7365C95.4959 14.7365 95.2553 14.5394 95.2553 14.1084V11.6946H96.4962V10.4631H95.2553V8.97291H93.6979V10.4631H92.8368V11.6946H93.6979V14.3054ZM99.2915 10.4631H97.7214V15.968H99.2915V10.4631ZM99.4308 8.87438C99.4308 8.36946 99.0003 8 98.5065 8C98 8 97.5695 8.36946 97.5695 8.87438C97.5695 9.39163 98 9.74877 98.5065 9.74877C99.0003 9.74877 99.4308 9.39163 99.4308 8.87438ZM105.185 11.0419C104.868 10.6355 104.336 10.3399 103.665 10.3399C103.032 10.3399 102.513 10.5739 102.234 10.9187V10.4631H100.664V15.968H102.234V12.4212C102.336 11.9532 102.716 11.7069 103.121 11.7069C103.665 11.7069 103.918 12.101 103.918 12.6921V15.968H105.501V12.4212C105.602 11.9532 105.97 11.7069 106.375 11.7069C106.919 11.7069 107.185 12.101 107.185 12.6921V15.968H108.755V12.3719C108.755 11.1281 108.059 10.3399 106.894 10.3399C106.096 10.3399 105.552 10.6478 105.185 11.0419ZM113.506 14.17C113.379 14.6379 112.987 14.8596 112.455 14.8596C111.759 14.8596 111.277 14.367 111.227 13.5419H115V13.0739C115 11.4606 114.088 10.3399 112.43 10.3399C110.847 10.3399 109.707 11.5591 109.707 13.2217C109.707 14.9212 110.809 16.0911 112.455 16.0911C113.873 16.0911 114.759 15.3399 114.962 14.17H113.506ZM112.442 11.5837C113.088 11.5837 113.443 12.0394 113.455 12.6182H111.265C111.404 11.9409 111.834 11.5837 112.442 11.5837Z" fill="#202223"/>
<path fill-rule="evenodd" clip-rule="evenodd" d="M2.62292 14.6219C2.12905 14.6219 1.88164 14.3772 1.88164 13.9753C1.88164 13.2307 2.71356 12.9754 4.23188 12.8142C4.23188 13.8117 3.55927 14.6219 2.62292 14.6219ZM3.27757 9.01221C2.19262 9.01221 0.944436 9.52444 0.266897 10.0662L0.885713 11.3714C1.42938 10.8731 2.30777 10.4467 3.10037 10.4467C3.85391 10.4467 4.26941 10.6996 4.26941 11.2078C4.26941 11.5498 3.99426 11.7234 3.47348 11.7913C1.52649 12.0441 0 12.5826 0 14.0867C0 15.279 0.847329 16 2.16981 16C3.11348 16 3.95426 15.4737 4.35349 14.7798V15.8059H6.11351V11.5073C6.11351 9.73235 4.88244 9.01221 3.27757 9.01221Z" fill="#060809"/>
<path fill-rule="evenodd" clip-rule="evenodd" d="M20.9443 9.20613V15.8059H22.8276V12.6259C22.8276 11.1145 23.7403 10.671 24.377 10.671C24.6251 10.671 24.9607 10.743 25.1819 10.9091L25.5248 9.16441C25.2342 9.04002 24.9297 9.01221 24.6807 9.01221C23.7125 9.01221 23.1044 9.44186 22.7027 10.315V9.20613H20.9443Z" fill="#060809"/>
<path fill-rule="evenodd" clip-rule="evenodd" d="M34.2559 9.01196C33.26 9.01196 32.5155 9.60277 32.1286 10.1707C31.7686 9.43666 31.0068 9.01196 30.0934 9.01196C29.0975 9.01196 28.4084 9.56677 28.0901 10.2042V9.20588H26.2754V15.8066H28.1595V12.4089C28.1595 11.1887 28.797 10.6036 29.3913 10.6036C29.9293 10.6036 30.4248 10.9531 30.4248 11.8548V15.8066H32.3057V12.4089C32.3057 11.1756 32.9286 10.6036 33.5505 10.6036C34.0486 10.6036 34.5734 10.9678 34.5734 11.8409V15.8066H36.4551V11.2452C36.4551 9.76077 35.4591 9.01196 34.2559 9.01196Z" fill="#060809"/>
<path fill-rule="evenodd" clip-rule="evenodd" d="M16.3604 9.20598H14.6543V8.53497C14.6543 7.66177 15.1523 7.41222 15.58 7.41222C16.0543 7.41222 16.4233 7.62253 16.4233 7.62253L17.0045 6.2911C17.0045 6.2911 16.4159 5.90649 15.3449 5.90649C14.1425 5.90649 12.7726 6.58569 12.7726 8.7207V9.20598H9.91705V8.53497C9.91705 7.66177 10.4143 7.41222 10.8428 7.41222C11.0869 7.41222 11.4143 7.4687 11.6861 7.62253L12.2664 6.2911C11.9204 6.08813 11.3628 5.90649 10.6077 5.90649C9.40445 5.90649 8.03542 6.58569 8.03542 8.7207V9.20598H6.94238V10.6618H8.03542V15.8058H9.91705V10.6618H12.7726V15.8058H14.6543V10.6618H16.3604V9.20598Z" fill="#060809"/>
<path fill-rule="evenodd" clip-rule="evenodd" d="M17.4844 15.8059H19.3644V9.20605H17.4844V15.8059Z" fill="#060809"/>
<path fill-rule="evenodd" clip-rule="evenodd" d="M28.4518 0C23.3684 0 18.8394 3.53682 17.5537 8.08429H19.3953C20.4697 4.69804 24.1154 1.72504 28.4518 1.72504C33.7237 1.72504 38.2796 5.74793 38.2796 12.0123C38.2796 13.4173 38.0976 14.6857 37.7539 15.806H39.5408L39.558 15.7438C39.8519 14.5884 40.0004 13.3331 40.0004 12.0123C40.0004 5.02779 34.9237 0 28.4518 0Z" fill="#0FA0EA"/>
</svg>
