<svg width="86" height="24" viewBox="0 0 86 24" fill="none" xmlns="http://www.w3.org/2000/svg">
<path fill-rule="evenodd" clip-rule="evenodd" d="M26.671 6.28967H31.3038C32.8544 6.28967 34.0223 6.71832 34.6808 7.52877C35.2803 8.26683 35.4788 9.3207 35.2715 10.662C34.8115 13.7278 33.0502 15.2749 29.9984 15.2749H28.5318C28.2155 15.2749 27.9452 15.5162 27.8964 15.8448L27.391 19.2015C27.3416 19.5301 27.072 19.7714 26.755 19.7714H24.5432C24.3054 19.7714 24.1239 19.55 24.1611 19.3044L26.0349 6.85883C26.0843 6.53096 26.3539 6.28967 26.671 6.28967ZM29.0866 12.5767C30.3148 12.5767 31.585 12.5767 31.8383 10.8352C31.9311 10.2234 31.8566 9.78058 31.6134 9.48251C31.2056 8.9829 30.4164 8.9829 29.5798 8.9829H29.2594C29.0697 8.9829 28.9071 9.12767 28.878 9.32425L28.3875 12.5767H29.0866Z" fill="#253B80"/>
<path fill-rule="evenodd" clip-rule="evenodd" d="M42.9338 10.779H45.1524C45.3895 10.779 45.5704 11.0011 45.5324 11.246L44.3334 19.2007C44.2833 19.5293 44.015 19.7706 43.6973 19.7706H41.6989C41.4625 19.7706 41.2809 19.5492 41.3182 19.3022L41.4171 18.6564C41.4171 18.6564 40.3217 19.9871 38.3464 19.9871C37.1954 19.9871 36.2281 19.6393 35.552 18.8047C34.815 17.8971 34.5135 16.5955 34.7255 15.2344C35.1334 12.5057 37.2273 10.5604 39.6788 10.5604C40.7478 10.5604 41.8188 10.8046 42.2991 11.5348L42.4542 11.7704L42.5525 11.1204C42.5816 10.9238 42.7448 10.779 42.9338 10.779ZM39.5569 17.5217C40.8399 17.5217 41.8459 16.6303 42.06 15.3025C42.1568 14.6595 42.0227 14.0762 41.6847 13.6582C41.3473 13.2444 40.8352 13.0251 40.2052 13.0251C38.9418 13.0251 37.9189 13.9456 37.7191 15.262C37.6147 15.9078 37.7394 16.4877 38.0673 16.895C38.3978 17.3052 38.9127 17.5217 39.5569 17.5217Z" fill="#253B80"/>
<path d="M56.9683 10.7791H54.7389C54.5262 10.7791 54.3264 10.8898 54.2058 11.075L51.131 15.8199L49.8276 11.2602C49.7457 10.9749 49.4944 10.7791 49.2098 10.7791H47.0191C46.7528 10.7791 46.5679 11.0516 46.6526 11.3141L49.1082 18.8637L46.7996 22.278C46.618 22.5469 46.8009 22.9167 47.1146 22.9167H49.3413C49.5526 22.9167 49.7504 22.8088 49.8703 22.6271L57.2854 11.4142C57.4628 11.146 57.2806 10.7791 56.9683 10.7791Z" fill="#253B80"/>
<path fill-rule="evenodd" clip-rule="evenodd" d="M59.7162 6.28967H64.3497C65.9003 6.28967 67.0675 6.71832 67.7253 7.52877C68.3248 8.26683 68.5247 9.3207 68.3167 10.662C67.856 13.7278 66.0954 15.2749 63.043 15.2749H61.577C61.2607 15.2749 60.9904 15.5162 60.9416 15.8448L60.4099 19.3726C60.3753 19.6025 60.1863 19.7714 59.9655 19.7714H57.5877C57.3513 19.7714 57.1698 19.55 57.207 19.3044L59.0808 6.85883C59.1302 6.53096 59.3998 6.28967 59.7162 6.28967ZM62.1325 12.5767C63.3614 12.5767 64.6315 12.5767 64.8842 10.8352C64.977 10.2234 64.9032 9.78058 64.66 9.48251C64.2522 8.9829 63.4623 8.9829 62.6264 8.9829H62.3059C62.1156 8.9829 61.9544 9.12767 61.9252 9.32425L61.4341 12.5767H62.1325Z" fill="#179BD7"/>
<path fill-rule="evenodd" clip-rule="evenodd" d="M75.9801 10.779H78.1973C78.4351 10.779 78.6167 11.0011 78.5801 11.246L77.3804 19.2007C77.3309 19.5293 77.0613 19.7706 76.745 19.7706H74.7472C74.5095 19.7706 74.3279 19.5492 74.3652 19.3022L74.4641 18.6564C74.4641 18.6564 73.3687 19.9871 71.3933 19.9871C70.2424 19.9871 69.2764 19.6393 68.599 18.8047C67.862 17.8971 67.5619 16.5955 67.7732 15.2344C68.181 12.5057 70.2742 10.5604 72.7258 10.5604C73.7948 10.5604 74.8651 10.8046 75.3454 11.5348L75.5012 11.7704L75.5994 11.1204C75.6279 10.9238 75.7898 10.779 75.9801 10.779ZM72.6019 17.5217C73.8849 17.5217 74.8922 16.6303 75.1049 15.3025C75.2031 14.6595 75.069 14.0762 74.7296 13.6582C74.3923 13.2444 73.8801 13.0251 73.2501 13.0251C71.9868 13.0251 70.9652 13.9456 70.764 15.262C70.6611 15.9078 70.7843 16.4877 71.1122 16.895C71.4428 17.3052 71.959 17.5217 72.6019 17.5217Z" fill="#179BD7"/>
<path d="M80.8126 6.631L78.9111 19.3044C78.8739 19.55 79.0554 19.7714 79.2918 19.7714H81.2035C81.5212 19.7714 81.7908 19.5301 81.8396 19.2015L83.7147 6.75662C83.752 6.51107 83.5704 6.28894 83.334 6.28894H81.1933C81.0043 6.28965 80.8418 6.43442 80.8126 6.631Z" fill="#179BD7"/>
<path d="M4.92214 22.1899L5.27643 19.8324L4.48723 19.8132H0.71875L3.33765 2.41688C3.34578 2.36436 3.3722 2.31539 3.41081 2.28062C3.44943 2.24585 3.49888 2.22668 3.55036 2.22668H9.90456C12.014 2.22668 13.4698 2.68656 14.2299 3.59423C14.5862 4.02004 14.8131 4.46501 14.9229 4.95468C15.038 5.46849 15.0401 6.08236 14.9276 6.83107L14.9195 6.88572V7.36546L15.2758 7.57694C15.5759 7.74372 15.8144 7.93462 15.9973 8.1532C16.3021 8.51727 16.4992 8.97997 16.5826 9.52856C16.6686 10.0927 16.6401 10.7641 16.4992 11.5242C16.3367 12.3985 16.0738 13.16 15.7188 13.7831C15.3923 14.3572 14.9764 14.8334 14.4826 15.2024C14.0111 15.553 13.4508 15.8191 12.8175 15.9895C12.2037 16.1569 11.5039 16.2414 10.7364 16.2414H10.2419C9.8883 16.2414 9.54485 16.3748 9.27523 16.614C9.00494 16.8581 8.8261 17.1917 8.77123 17.5564L8.73398 17.7686L8.10804 21.9238L8.07959 22.0764C8.07214 22.1246 8.05927 22.1487 8.0403 22.1651C8.02336 22.18 7.99898 22.1899 7.97527 22.1899H4.92214Z" fill="#253B80"/>
<path d="M15.6134 6.94104C15.5945 7.06807 15.5728 7.19794 15.5484 7.33136C14.7104 11.8385 11.8436 13.3956 8.18216 13.3956H6.3179C5.87012 13.3956 5.4928 13.7362 5.42303 14.1989L4.46854 20.5406L4.19825 22.3382C4.15287 22.6419 4.37642 22.9159 4.66906 22.9159H7.97554C8.36709 22.9159 8.69971 22.6178 8.76135 22.2133L8.79387 22.0373L9.41642 17.8985L9.45638 17.6714C9.51735 17.2654 9.85064 16.9674 10.2422 16.9674H10.7367C13.9402 16.9674 16.448 15.6048 17.181 11.6618C17.4872 10.0147 17.3287 8.6393 16.5185 7.67201C16.2733 7.38033 15.9691 7.13833 15.6134 6.94104Z" fill="#179BD7"/>
<path d="M14.7367 6.57486C14.6087 6.53583 14.4766 6.50035 14.3411 6.46841C14.2049 6.43718 14.0654 6.40951 13.9218 6.38538C13.4191 6.30022 12.8684 6.25977 12.2783 6.25977H7.29795C7.17534 6.25977 7.05882 6.28886 6.9545 6.34138C6.72485 6.45706 6.55414 6.68486 6.51282 6.96377L5.45334 13.9938L5.42285 14.1989C5.49263 13.7362 5.86995 13.3956 6.31772 13.3956H8.18198C11.8434 13.3956 14.7103 11.8378 15.5482 7.33138C15.5733 7.19796 15.5943 7.06809 15.6133 6.94106C15.4012 6.82325 15.1716 6.72248 14.9243 6.6366C14.8634 6.61531 14.8004 6.59473 14.7367 6.57486Z" fill="#222D65"/>
<path d="M6.5127 6.96381C6.55402 6.6849 6.72473 6.4571 6.95438 6.34213C7.05938 6.28961 7.17522 6.26052 7.29783 6.26052H12.2782C12.8683 6.26052 13.419 6.30097 13.9216 6.38613C14.0653 6.41026 14.2048 6.43794 14.341 6.46916C14.4764 6.5011 14.6085 6.53658 14.7366 6.57561C14.8003 6.59548 14.8632 6.61606 14.9249 6.63665C15.1722 6.72252 15.4018 6.824 15.6138 6.9411C15.8631 5.27548 15.6118 4.14142 14.7522 3.11452C13.8044 1.984 12.094 1.5 9.90522 1.5H3.55102C3.10393 1.5 2.72254 1.84065 2.65344 2.30406L0.00676662 19.8792C-0.0453947 20.227 0.21067 20.5406 0.545315 20.5406H4.46825L5.45322 13.9939L6.5127 6.96381Z" fill="#253B80"/>
</svg>
