<svg xmlns="http://www.w3.org/2000/svg" fill="none" viewBox="0 0 90 90">
<g clip-path="url(#clip0_86_430)">
<path d="M44.76 67.32C44.76 64.905 46.6987 62.97 49.1175 62.97C51.5325 62.97 53.4675 64.905 53.4675 67.32C53.4695 67.892 53.3583 68.4587 53.1405 68.9876C52.9226 69.5164 52.6023 69.997 52.1981 70.4016C51.7938 70.8063 51.3135 71.127 50.7848 71.3453C50.2561 71.5636 49.6895 71.6752 49.1175 71.6737C48.5452 71.6762 47.9781 71.5655 47.4488 71.3478C46.9195 71.1302 46.4384 70.81 46.0334 70.4056C45.6284 70.0013 45.3074 69.5208 45.0888 68.9919C44.8703 68.463 44.7585 67.896 44.76 67.3237M62.475 67.3237C62.475 64.905 64.4137 62.9662 66.8288 62.9662C69.2437 62.9662 71.1825 64.905 71.1825 67.32C71.1825 69.735 69.2438 71.6737 66.8325 71.6737C66.2602 71.6762 65.6931 71.5655 65.1638 71.3478C64.6345 71.1302 64.1534 70.81 63.7484 70.4056C63.3434 70.0013 63.0224 69.5208 62.8038 68.9919C62.5853 68.463 62.4735 67.896 62.475 67.3237ZM21.4125 67.3237C21.4125 64.905 23.3512 62.9662 25.7662 62.9662C28.1812 62.9662 30.1163 64.905 30.1163 67.32C30.1163 69.735 28.1812 71.6737 25.7662 71.6737C25.1943 71.6757 24.6275 71.5646 24.0987 71.3467C23.5698 71.1289 23.0892 70.8086 22.6846 70.4043C22.28 70 21.9593 69.5197 21.741 68.991C21.5226 68.4624 21.411 67.8957 21.4125 67.3237ZM3.6975 67.3237C3.6975 64.905 5.63625 62.9662 8.05125 62.9662C10.4663 62.9662 12.405 64.905 12.405 67.32C12.407 67.8923 12.2957 68.4593 12.0776 68.9884C11.8595 69.5176 11.5389 69.9983 11.1342 70.403C10.7296 70.8077 10.2488 71.1283 9.7197 71.3464C9.19058 71.5645 8.62355 71.6757 8.05125 71.6737C7.47958 71.6752 6.91326 71.5637 6.38482 71.3456C5.85639 71.1276 5.37626 70.8072 4.97203 70.403C4.5678 69.9987 4.24743 69.5186 4.02935 68.9902C3.81127 68.4617 3.69977 67.8954 3.70125 67.3237M39.5137 59.6287H35.7262V74.865H39.5137V59.6287ZM12.375 74.865H16.1625V59.6287H12.375V60.8512C11.0548 59.9324 9.48348 59.4427 7.875 59.4487C3.5175 59.4487 0 62.9662 0 67.3237C0 71.7037 3.5175 75.195 7.875 75.195C9.54375 75.195 11.0925 74.6887 12.375 73.7925V74.865ZM71.1525 74.865H74.94V59.6287H71.1525V60.8512C69.8323 59.9324 68.261 59.4427 66.6525 59.4487C62.295 59.4487 58.7775 62.9662 58.7775 67.3237C58.774 68.3587 58.9754 69.3841 59.37 70.3409C59.7645 71.2977 60.3445 72.167 61.0765 72.8986C61.8085 73.6303 62.6781 74.2099 63.6351 74.604C64.592 74.9981 65.6175 75.199 66.6525 75.195C68.3213 75.195 69.87 74.6887 71.1525 73.7925V74.865ZM76.3425 69.915C76.4625 72.99 79.0875 75.165 83.4675 75.165C87.0487 75.165 90 73.6125 90 70.185C90 67.8 88.6575 66.3975 85.5563 65.7975L83.1413 65.325C81.5887 65.025 80.5163 64.725 80.5163 63.8025C80.5163 62.79 81.5588 62.34 82.8713 62.34C84.7838 62.34 85.5562 63.2962 85.6162 64.4287H89.4338C89.2238 61.4475 86.8388 59.4487 82.9912 59.4487C79.0275 59.4487 76.6687 61.6237 76.6687 64.4587C76.6687 67.9162 79.4737 68.4825 81.8887 68.9325L83.8875 69.2887C85.32 69.5587 85.9463 69.975 85.9463 70.8112C85.9463 71.5575 85.23 72.3 83.5275 72.3C81.0525 72.3 80.25 71.0175 80.22 69.915H76.3425ZM30.09 54.4387V60.8512C28.7698 59.9324 27.1985 59.4427 25.59 59.4487C21.2325 59.4487 17.715 62.9662 17.715 67.3237C17.715 71.7037 21.2325 75.195 25.59 75.195C27.255 75.195 28.8075 74.6887 30.09 73.7925V74.865H33.8775V54.4387H30.09ZM53.4375 54.4387V60.8512C52.1173 59.9324 50.546 59.4427 48.9375 59.4487C44.5838 59.4487 41.0625 62.9662 41.0625 67.3237C41.059 68.3587 41.2604 69.3841 41.655 70.3409C42.0495 71.2977 42.6295 72.167 43.3615 72.8986C44.0935 73.6303 44.9631 74.2099 45.9201 74.604C46.877 74.9981 47.9025 75.199 48.9375 75.195C50.6063 75.195 52.155 74.6887 53.4375 73.7925V74.865H57.225V54.4387H53.4375ZM9.84 49.9387L12.405 54.4387H30.09L23.0813 42.33L9.84375 49.935L9.84 49.9387ZM39.5137 58.2262V54.4387H53.4375L38.5875 28.7325L25.3162 36.3375L35.7262 54.4387V58.2262H39.5137ZM59.0775 54.4387H76.7887L53.8875 14.805L40.6462 22.44L59.0775 54.4387Z" fill="black"/>
</g>
<defs>
<clipPath id="clip0_86_430">
<rect width="90" height="90" fill="white"/>
</clipPath>
</defs>
</svg>