<svg xmlns="http://www.w3.org/2000/svg" fill="none" viewBox="0 0 170 30">
<path fill-rule="evenodd" clip-rule="evenodd" d="M24.495 21.911C24.495 21.9895 24.4253 22.0681 24.4253 22.1466C22.2619 26.7801 17.9351 30 12.9803 30C5.86206 30 0 23.2461 0 15C0 6.75393 5.86206 0 12.9803 0C17.9351 0 22.2619 3.2199 24.4253 8.01047C24.495 8.08901 24.495 8.16754 24.5648 8.24607C24.5648 8.24607 20.4474 11.623 20.3776 11.623C20.3776 11.5445 20.3079 11.466 20.3079 11.3874C19.1215 8.01047 16.2602 5.81152 12.9803 5.81152C8.58373 5.89005 5.02462 9.89529 5.02462 15C5.02462 20.1047 8.65352 24.1885 12.9803 24.1885C16.1207 24.1885 18.9121 21.9895 20.1683 18.8482C20.2381 18.7696 20.2381 18.6126 20.3079 18.534L24.495 21.911Z" fill="#161413"/>
<path fill-rule="evenodd" clip-rule="evenodd" d="M29.8729 0.198669H34.8975V10.7222H48.0174V0.198669H53.042V29.4133H48.0174V16.6123H34.8975V29.4133H29.8729V0.198669Z" fill="#161413"/>
<path fill-rule="evenodd" clip-rule="evenodd" d="M123.714 29.4133V0.198669H141.858V6.08872H128.738V11.9002H140.811V17.7118H128.738V23.5233H143.672V29.3348H123.714V29.4133Z" fill="#161413"/>
<path fill-rule="evenodd" clip-rule="evenodd" d="M150.809 29.4133V0.198669H155.903V23.6018H170V29.4133H150.809Z" fill="#161413"/>
<path fill-rule="evenodd" clip-rule="evenodd" d="M96.3768 29.4133H96.2372H91.2823V0.198669H91.6313H98.3308L109.427 17.7903V0.198669H114.451V29.4133H110.404L96.3768 7.4238V29.4133Z" fill="#161413"/>
<path fill-rule="evenodd" clip-rule="evenodd" d="M72.2002 6.08872L67.7339 17.7903H76.8061L72.2002 6.08872ZM65.5007 23.6018L63.128 29.4133H57.1263L68.6411 0.198669H75.6895L87.2741 29.4133H81.2724L78.8997 23.6018H65.5007Z" fill="#161413"/>
</svg>