<svg xmlns="http://www.w3.org/2000/svg" fill="none" viewBox="0 0 90 90">
<g clip-path="url(#clip0_86_434)">
<path d="M0.273 32.9067H11.9569C22.0028 32.9067 25.9339 38.8032 25.9339 45.0454C25.9339 51.3968 20.8927 57.0567 11.3017 57.0567H0.291C0.09075 57.0567 0.018 56.9292 0.018 56.82C0.018 56.6925 0.1455 56.5834 0.327375 56.5834H2.38387C3.021 56.5834 3.4395 56.2013 3.4395 55.4914V34.5083C3.4395 33.9807 3.18488 33.3983 2.3475 33.3983H0.254625C0.091125 33.3983 0 33.2892 0 33.1617C0 33.0525 0.036375 32.9067 0.273 32.9067ZM7.57087 55.9287C7.57087 56.4563 7.8075 56.6202 8.15325 56.6202H11.247C18.8723 56.6202 21.6386 50.7784 21.6386 44.9183C21.6386 39.0582 18.7084 33.3799 12.2662 33.3799H8.06213C7.62525 33.3799 7.58887 33.744 7.58887 33.9075L7.57087 55.9287ZM27.0983 32.9067C26.9164 32.9067 26.7525 32.9794 26.7525 33.1249C26.7525 33.2704 26.8436 33.3615 27.0071 33.3615H29.0636C29.5369 33.3615 29.9917 33.6893 29.9917 34.599V55.5098C29.9917 55.9467 29.664 56.6018 29.0816 56.6018H27.0439C26.8072 56.6018 26.7892 56.7837 26.7892 56.8564C26.7892 56.9292 26.7709 57.0567 27.0439 57.0567H36.9442C37.0897 57.0567 37.29 57.0383 37.29 56.8928C37.29 56.7473 37.2536 56.6018 36.999 56.6018H35.0876C34.8146 56.6018 34.0684 56.4379 34.0684 55.6009V34.3808C34.0684 33.78 34.4505 33.3799 35.142 33.3799H37.0166C37.1805 33.3799 37.2713 33.2888 37.2713 33.1617C37.2713 33.0342 37.1801 32.925 36.9619 32.925C36.96 32.907 27.0634 32.9595 27.0983 32.9067ZM42.5674 44.991C42.5674 38.3119 45.552 32.907 51.1571 32.907C56.6531 32.907 59.7469 38.3123 59.7469 44.991C59.7469 51.6698 56.9265 57.075 51.1575 57.075C45.5704 57.0934 42.5674 51.6698 42.5674 44.991ZM51.1575 57.5847C59.1285 57.5847 64.1516 51.9432 64.1516 45.009C64.1516 38.0749 59.1833 32.4154 51.1575 32.4154C43.1501 32.4154 38.1634 38.0569 38.1634 44.991C38.1634 51.9252 43.35 57.5847 51.1575 57.5847ZM89.6299 56.9112C86.4997 57.2389 84.7706 52.1067 83.1874 49.668C82.0046 47.8662 79.4929 46.0283 77.0179 45.6642C81.0945 45.4275 85.6624 44.1173 85.6624 39.4947C85.6624 35.7458 83.3512 32.9067 74.8703 32.9067H65.0974C64.9699 32.9067 64.8428 32.9794 64.8428 33.1249C64.8428 33.2704 64.9703 33.3615 65.0974 33.3615H67.3357C67.809 33.3615 68.2639 33.6893 68.2639 34.599V55.5098C68.2639 55.9467 67.9361 56.6018 67.3538 56.6018H65.1525C64.9706 56.6018 64.8979 56.7473 64.8979 56.82C64.8979 56.8928 64.9706 57.0567 65.1525 57.0567H75.5257C75.6712 57.0567 75.7987 56.9839 75.7987 56.8384C75.7987 56.6929 75.7076 56.6018 75.5078 56.6018H73.4149C73.1419 56.6018 72.3956 56.4199 72.3956 55.6009V45.7189H73.4693C78.6015 45.7189 78.9836 51.2877 81.5314 54.4725C83.7154 57.2025 86.5725 57.5483 88.1921 57.5483C88.8836 57.5483 89.3569 57.5299 89.7937 57.4208C90.0667 57.3297 90.1215 56.8568 89.6299 56.9112ZM73.4329 33.3619H74.9434C77.5275 33.3619 81.7132 34.3812 81.7132 39.2584C81.7132 43.7355 78.0007 45.246 74.5609 45.246H72.3589V34.3808C72.3593 33.762 72.7414 33.3619 73.4329 33.3619Z" fill="black"/>
</g>
<defs>
<clipPath id="clip0_86_434">
<rect width="90" height="90" fill="white"/>
</clipPath>
</defs>
</svg>