<svg xmlns="http://www.w3.org/2000/svg" fill="none" viewBox="0 0 209 44">
<path d="M32.0869 22.8149L35.0032 26.1669L40.8694 19.3908V34.4011H45.9225V12.567H40.7659L32.0869 22.8149Z" fill="black"/>
<path d="M17.9124 12.567H12.8015V34.4011H17.8674V19.3908L29.3686 32.719L32.3024 29.3178L17.9124 12.567Z" fill="black"/>
<path d="M76.3108 27.6329L80.9863 34.4008H87.0803L71.7919 12.5671H66.298L66.2933 12.5739L73.9482 24.1528H63.7761L66.431 20.3781L63.6619 16.2761L50.7798 34.4008H56.4793L61.2946 27.6344L76.3108 27.6329Z" fill="black"/>
<path d="M120.821 12.5669H115.754V23.1699L120.821 26.8579V12.5669Z" fill="black"/>
<path d="M96.365 12.567H91.2097V34.4011H96.279V18.0862L117.048 34.4011H120.821V31.748L96.365 12.567Z" fill="black"/>
<mask id="mask0_86_438" style="mask-type:luminance" maskUnits="userSpaceOnUse" x="0" y="0" width="209" height="44">
<path d="M0 44H209V-8.04663e-07H0V44Z" fill="white"/>
</mask>
<g mask="url(#mask0_86_438)">
<path d="M156.23 18.626C153.817 16.81 150.096 15.647 145.922 15.647C139.26 15.647 133.754 18.6109 132.876 22.4572H127.297C128.026 16.4871 136.455 12.0866 145.991 12.0866C151.662 12.0866 156.757 13.6172 160.188 16.08L156.23 18.626Z" fill="black"/>
<path d="M145.451 31.3514C139.889 31.3514 135.155 29.1672 133.389 26.1117H127.697C129.579 31.3781 136.98 34.8909 145.766 34.8909C147.806 34.8909 150.154 34.7448 152.103 34.3941C156.503 33.6052 161.307 31.533 161.307 28.2618V22.4568H145.393L145.381 26.1117H156.221V27.7709C156.221 29.603 152.444 30.6627 150.133 31.0348C148.889 31.235 147.292 31.3514 146.003 31.3514H145.451Z" fill="black"/>
<path d="M203.198 23.5043C203.198 16.9927 195.043 11.941 185.025 11.941C175.325 11.941 166.804 16.7594 166.804 23.1537C166.804 29.1828 173.496 34.0133 182.512 34.7794V31.1317C176.614 30.4275 172.156 27.2338 172.156 23.3928C172.156 19.0356 177.888 15.501 184.957 15.501C192.028 15.501 197.759 19.0356 197.759 23.3928C197.759 27.2041 193.371 30.3764 187.541 31.1142V34.7696C196.192 34.0075 203.198 29.3571 203.198 23.5043Z" fill="black"/>
</g>
</svg>