<svg xmlns="http://www.w3.org/2000/svg" fill="none" viewBox="0 26.25 90 37.5">
<path d="M32.1075 26.25L32.115 26.2725L42.5925 54.8512V27.7387H38.28V27.4763H53.13C60.2663 27.4763 65.2463 31.1362 65.2463 36.3825C65.2463 40.2075 61.8337 43.3875 56.76 44.2913L55.8263 44.4075L56.7638 44.505C59.8425 44.8575 62.2875 45.8025 64.02 47.3175L64.0312 47.3288L71.7788 26.25H72.0413L72.0487 26.2725L85.3837 62.64H90V62.9025H75.3075V62.64H79.635L75.2475 50.6813H66.3488V50.6888L66.3975 50.8275C66.75 51.8813 66.93 52.9875 66.9187 54.1012V58.5863C66.9187 60.8925 67.935 63.2288 69.8812 63.2288C71.0212 63.2288 71.9325 62.8275 73.02 61.8338L73.1738 61.9762C71.9963 63.2213 70.5675 63.75 68.4262 63.75C66.8138 63.75 65.4262 63.36 64.3162 62.595L64.1062 62.445C62.6437 61.335 61.6912 59.5275 61.2825 57.0637L61.215 56.6663L61.1475 56.0662L61.14 55.9613L58.6875 62.6362H62.1675V62.8988H54.885V62.6362H58.4025L61.095 55.3087V55.29C61.067 54.858 61.0507 54.4254 61.0462 53.9925V50.79C61.0462 46.8562 58.1213 44.6025 53.0212 44.6025H48.0075V62.64H52.35V62.9025H35.3737V62.64H39.7012L35.3138 50.6813H23.145L18.8025 62.5088L18.9825 62.4787C24.6862 61.4962 27.3075 57.1425 27.345 52.56H27.6075V62.9025H0L20.4938 27.7387H12.255C5.4225 27.7387 2.3325 33.015 2.28375 38.2762H2.025V27.4763H26.9025L26.7525 27.7387L6.40875 62.64H17.1112C17.3775 62.64 17.64 62.6287 17.9062 62.6062L18.1763 62.5837L18.5138 62.5463L31.8413 26.25H32.1037H32.1075ZM69.1687 34.1063L64.245 47.5162L64.2712 47.5425L64.5225 47.79C65.2462 48.5288 65.8238 49.4025 66.2175 50.355L66.2438 50.4187H75.15L69.1687 34.1063ZM29.2388 34.1063L23.2425 50.4187H35.22L29.2388 34.1063ZM51.8363 27.7387H48.0113V44.34H53.0212C58.095 44.34 59.6475 42.4912 59.6475 36.4388C59.6475 30.75 56.9475 27.7387 51.8363 27.7387Z" fill="black"/>
</svg>