<svg width="186" height="31" viewBox="0 0 186 31" fill="none" xmlns="http://www.w3.org/2000/svg">
<path d="M55.44 10.3289C54.6553 9.25787 52.5066 8.22887 50.0133 8.22887C46.8086 8.22887 45.2686 9.32388 45.2686 10.7159C45.2686 12.3479 47.6263 12.8159 50.3726 13.0709C55.1393 13.5539 59.5943 14.5709 59.5943 19.0409C59.5943 23.2139 55.0806 25.0079 49.9803 25.0079C45.3016 25.0079 41.7046 23.8289 40.0033 20.4029L43.6003 18.8789C44.616 20.9399 47.267 21.8489 50.0463 21.8489C52.7596 21.8489 55.3116 21.0749 55.3116 19.0409C55.3116 17.2739 53.053 16.5509 50.0133 16.2839C45.3346 15.8279 41.019 14.8109 41.019 10.6109C41.019 6.75587 45.661 5.17788 49.8813 5.15088C53.4453 5.15088 57.1413 5.97888 58.8756 8.87088L55.44 10.3289Z" fill="black"/>
<path d="M68.6253 7.62598V11.37H73.073V14.181H68.5923V19.881C68.5923 21.138 69.443 21.753 70.686 21.753C71.3568 21.7372 72.0152 21.601 72.6146 21.354L73.7146 24.135C72.6685 24.493 71.5485 24.6844 70.4146 24.699C66.9166 24.804 64.625 23.172 64.625 19.881V14.181H61.6183V11.37H64.625V7.97397L68.6253 7.62598Z" fill="black"/>
<path d="M92.664 11.3431L82.819 30.0511H78.4374L81.444 24.3241L75.0017 11.3431H79.6474L82.1004 17.0431L83.6367 20.7601L85.305 17.1211L88.2384 11.3401L92.664 11.3431Z" fill="black"/>
<path d="M98.714 5.83203V24.537H94.7577V5.83203H98.714Z" fill="black"/>
<path d="M105.618 19.1039C105.879 20.7359 107.613 21.9149 110.425 21.9149C111.892 21.9149 113.828 21.4589 114.741 20.6849L117.308 22.7459C115.592 24.1889 112.812 24.8999 110.367 24.8999C104.808 24.8999 101.504 22.0889 101.504 17.8619C101.504 13.8479 104.841 10.9619 110.073 10.9619C115.471 10.9619 118.837 13.6919 118.217 19.1219L105.618 19.1039ZM114.382 16.4039C114.121 14.6939 112.486 13.8359 110.198 13.8359C108.038 13.8359 106.271 14.6939 105.684 16.4039H114.382Z" fill="black"/>
<path d="M141.533 10.971L134.079 19.104H133.228L125.932 10.944V24.564H121.612V5.83203H126.584L133.745 13.887L140.91 5.83203H145.849V24.564H141.533V10.971Z" fill="black"/>
<path d="M162.727 11.343H166.555V24.543H162.8L162.602 22.617C161.689 24.168 159.17 24.918 157.37 24.945C152.603 24.972 149.061 22.563 149.061 17.934C149.061 13.383 152.757 11.004 157.469 11.034C159.628 11.034 161.689 11.865 162.602 13.176L162.727 11.343ZM153.047 17.928C153.047 20.442 155.173 21.942 157.813 21.942C164.094 21.942 164.094 13.941 157.813 13.941C155.173 13.941 153.047 15.411 153.047 17.928Z" fill="black"/>
<path d="M180.195 11.343H184.961V11.451L179.667 17.847L185.291 24.447V24.528H180.525L177.027 20.112L173.525 24.528H168.758V24.447L174.383 17.847L169.085 11.451V11.343H173.851L177.027 15.813L180.195 11.343Z" fill="black"/>
<path fill-rule="evenodd" clip-rule="evenodd" d="M29.6523 7.17591L15.1506 0.326904L0.645264 7.17591V14.2289L14.6116 20.8289L21.1419 17.7419L25.9086 15.4979L26.0406 15.5609V19.1609L15.1506 24.2999L0.645264 17.4449V20.8739L15.1506 27.7229L29.6523 20.8739V13.8389L15.6859 7.23891L4.39993 12.5699L4.26793 12.5129V8.89191L15.1506 3.75291L29.6523 10.6079V7.17591ZM17.5119 16.0199L14.6116 17.3999L8.0116 14.3009L15.6713 10.6799L22.2493 13.7849L17.5119 16.0199Z" fill="black"/>
</svg>
