<svg width="282" height="217" viewBox="0 0 282 217" fill="none" xmlns="http://www.w3.org/2000/svg">
<path d="M73.44 65.3289C72.6553 64.2579 70.5066 63.2289 68.0133 63.2289C64.8086 63.2289 63.2686 64.3239 63.2686 65.7159C63.2686 67.3479 65.6263 67.8159 68.3726 68.0709C73.1393 68.5539 77.5943 69.5709 77.5943 74.0409C77.5943 78.2139 73.0806 80.0079 67.9803 80.0079C63.3016 80.0079 59.7046 78.8289 58.0033 75.4029L61.6003 73.8789C62.616 75.9399 65.267 76.8489 68.0463 76.8489C70.7596 76.8489 73.3116 76.0749 73.3116 74.0409C73.3116 72.2739 71.053 71.5509 68.0133 71.2839C63.3346 70.8279 59.019 69.8109 59.019 65.6109C59.019 61.7559 63.661 60.1779 67.8813 60.1509C71.4453 60.1509 75.1413 60.9789 76.8756 63.8709L73.44 65.3289Z" fill="black"/>
<path d="M86.6254 62.626V66.37H91.073V69.181H86.5924V74.881C86.5924 76.138 87.443 76.753 88.686 76.753C89.3569 76.7372 90.0153 76.601 90.6147 76.354L91.7147 79.135C90.6686 79.493 89.5485 79.6844 88.4147 79.699C84.9167 79.804 82.625 78.172 82.625 74.881V69.181H79.6183V66.37H82.625V62.974L86.6254 62.626Z" fill="black"/>
<path d="M110.664 66.3431L100.819 85.0511H96.4373L99.444 79.3241L93.0016 66.3431H97.6473L100.1 72.0431L101.637 75.7601L103.305 72.1211L106.238 66.3401L110.664 66.3431Z" fill="black"/>
<path d="M116.714 60.832V79.537H112.758V60.832H116.714Z" fill="black"/>
<path d="M123.618 74.1039C123.879 75.7359 125.613 76.9149 128.425 76.9149C129.892 76.9149 131.828 76.4589 132.741 75.6849L135.308 77.7459C133.592 79.1889 130.812 79.8999 128.367 79.8999C122.808 79.8999 119.504 77.0889 119.504 72.8619C119.504 68.8479 122.841 65.9619 128.073 65.9619C133.471 65.9619 136.837 68.6919 136.217 74.1219L123.618 74.1039ZM132.382 71.4039C132.121 69.6939 130.486 68.8359 128.198 68.8359C126.038 68.8359 124.271 69.6939 123.684 71.4039H132.382Z" fill="black"/>
<path d="M159.533 65.971L152.079 74.104H151.228L143.932 65.944V79.564H139.612V60.832H144.584L151.745 68.887L158.91 60.832H163.849V79.564H159.533V65.971Z" fill="black"/>
<path d="M180.727 66.343H184.555V79.543H180.8L180.602 77.617C179.689 79.168 177.17 79.918 175.37 79.945C170.603 79.972 167.061 77.563 167.061 72.934C167.061 68.383 170.757 66.004 175.469 66.034C177.628 66.034 179.689 66.865 180.602 68.176L180.727 66.343ZM171.047 72.928C171.047 75.442 173.173 76.942 175.813 76.942C182.094 76.942 182.094 68.941 175.813 68.941C173.173 68.941 171.047 70.411 171.047 72.928Z" fill="black"/>
<path d="M198.195 66.343H202.961V66.451L197.667 72.847L203.291 79.447V79.528H198.525L195.027 75.112L191.525 79.528H186.758V79.447L192.383 72.847L187.085 66.451V66.343H191.851L195.027 70.813L198.195 66.343Z" fill="black"/>
<path fill-rule="evenodd" clip-rule="evenodd" d="M47.6523 62.1759L33.1507 55.3269L18.6453 62.1759V69.2289L32.6117 75.8289L39.142 72.7419L43.9087 70.4979L44.0407 70.5609V74.1609L33.1507 79.2999L18.6453 72.4449V75.8739L33.1507 82.7229L47.6523 75.8739V68.8389L33.686 62.2389L22.4 67.5699L22.268 67.5129V63.8919L33.1507 58.7529L47.6523 65.6079V62.1759ZM35.512 71.0199L32.6117 72.3999L26.0117 69.3009L33.6713 65.6799L40.2493 68.7849L35.512 71.0199Z" fill="black"/>
</svg>
