<svg width="14" height="18" viewBox="0 0 14 18" fill="none" xmlns="http://www.w3.org/2000/svg">
<path fill-rule="evenodd" clip-rule="evenodd" d="M7.00001 2.33341C5.6193 2.33341 4.50001 3.4527 4.50001 4.83342C4.50001 6.21413 5.6193 7.33342 7.00001 7.33342C8.38072 7.33342 9.50001 6.21413 9.50001 4.83342C9.50001 3.4527 8.38072 2.33341 7.00001 2.33341ZM2.83334 4.83342C2.83334 2.53223 4.69882 0.666748 7.00001 0.666748C9.3012 0.666748 11.1667 2.53223 11.1667 4.83342C11.1667 7.1346 9.3012 9.00008 7.00001 9.00008C4.69882 9.00008 2.83334 7.1346 2.83334 4.83342ZM2.06914 15.6667H11.9309C11.5341 13.302 9.47751 11.5001 7.00001 11.5001C4.52251 11.5001 2.46587 13.302 2.06914 15.6667ZM0.333344 16.5001C0.333344 12.8182 3.31811 9.83342 7.00001 9.83342C10.6819 9.83342 13.6667 12.8182 13.6667 16.5001C13.6667 16.9603 13.2936 17.3334 12.8333 17.3334H1.16668C0.70644 17.3334 0.333344 16.9603 0.333344 16.5001Z" fill="#0F172A"/>
</svg>
